# Blender v2.91.0 OBJ File: 'sphere.blend'
# www.blender.org
mtllib sphere.mtl
o Sphere
v 0.000000 0.951057 -0.309017
v 0.000000 0.587785 -0.809017
v 0.000000 0.309017 -0.951057
v 0.000000 -0.000000 -1.000000
v 0.000000 -0.309017 -0.951056
v 0.000000 -0.809017 -0.587785
v 0.000000 -0.951057 -0.309017
v 0.000000 -1.000000 0.000000
v 0.118256 0.951057 -0.285494
v 0.224936 0.809017 -0.543043
v 0.309598 0.587785 -0.747434
v 0.363954 0.309017 -0.878662
v 0.382684 -0.000000 -0.923880
v 0.363954 -0.309017 -0.878662
v 0.309598 -0.587785 -0.747434
v 0.224936 -0.809017 -0.543043
v 0.118256 -0.951057 -0.285494
v 0.218508 0.951057 -0.218508
v 0.415627 0.809017 -0.415627
v 0.572062 0.587785 -0.572061
v 0.672499 0.309017 -0.672498
v 0.707107 -0.000000 -0.707107
v 0.672499 -0.309017 -0.672498
v 0.572062 -0.587785 -0.572061
v 0.415627 -0.809017 -0.415627
v 0.218508 -0.951057 -0.218508
v 0.285495 0.951057 -0.118255
v 0.543043 0.809017 -0.224935
v 0.747435 0.587785 -0.309597
v 0.878662 0.309017 -0.363953
v 0.923880 -0.000000 -0.382683
v 0.878662 -0.309017 -0.363953
v 0.747435 -0.587785 -0.309597
v 0.543043 -0.809017 -0.224935
v 0.285495 -0.951057 -0.118255
v 0.309017 0.951057 0.000000
v 0.587785 0.809017 0.000000
v 0.809017 0.587785 0.000000
v 0.951057 0.309017 0.000000
v 1.000000 -0.000000 0.000000
v 0.951057 -0.309017 0.000000
v 0.809017 -0.587785 0.000000
v 0.587785 -0.809017 0.000000
v 0.309017 -0.951057 0.000000
v 0.285495 0.951057 0.118256
v 0.543043 0.809017 0.224936
v 0.747434 0.587785 0.309598
v 0.878662 0.309017 0.363954
v 0.923880 -0.000000 0.382684
v 0.878662 -0.309017 0.363954
v 0.747434 -0.587785 0.309598
v 0.543043 -0.809017 0.224936
v 0.285495 -0.951057 0.118256
v 0.218508 0.951057 0.218509
v 0.415627 0.809017 0.415628
v 0.572061 0.587785 0.572062
v 0.672499 0.309017 0.672499
v 0.707107 -0.000000 0.707107
v 0.672499 -0.309017 0.672499
v 0.572061 -0.587785 0.572062
v 0.415627 -0.809017 0.415628
v 0.218508 -0.951057 0.218508
v 0.118256 0.951057 0.285495
v 0.224936 0.809017 0.543043
v 0.309597 0.587785 0.747435
v 0.363954 0.309017 0.878662
v 0.382683 -0.000000 0.923880
v 0.363953 -0.309017 0.878662
v 0.309597 -0.587785 0.747435
v 0.224936 -0.809017 0.543043
v 0.118256 -0.951057 0.285495
v -0.000000 0.951057 0.309018
v -0.000000 0.809017 0.587786
v -0.000000 0.587785 0.809017
v -0.000000 0.309017 0.951057
v -0.000000 -0.000000 1.000000
v -0.000000 -0.309017 0.951057
v -0.000000 -0.587785 0.809017
v -0.000000 -0.809017 0.587786
v -0.000000 -0.951057 0.309017
v -0.118256 0.951057 0.285495
v -0.224936 0.809017 0.543043
v -0.309598 0.587785 0.747435
v -0.363954 0.309017 0.878662
v -0.382684 -0.000000 0.923880
v -0.363954 -0.309017 0.878662
v -0.309598 -0.587785 0.747435
v -0.224936 -0.809017 0.543043
v -0.118256 -0.951057 0.285495
v -0.218508 0.951057 0.218508
v -0.415627 0.809017 0.415627
v -0.572062 0.587785 0.572062
v -0.672499 0.309017 0.672499
v -0.707107 -0.000000 0.707107
v -0.672499 -0.309017 0.672499
v -0.572062 -0.587785 0.572062
v -0.415627 -0.809017 0.415627
v -0.218508 -0.951057 0.218508
v -0.000000 1.000000 0.000000
v -0.285495 0.951057 0.118256
v -0.543043 0.809017 0.224936
v -0.747434 0.587785 0.309597
v -0.878662 0.309017 0.363954
v -0.923880 -0.000000 0.382683
v -0.878662 -0.309017 0.363954
v -0.747434 -0.587785 0.309597
v -0.543043 -0.809017 0.224936
v -0.285495 -0.951057 0.118256
v -0.309017 0.951057 0.000000
v -0.587785 0.809017 0.000000
v -0.809017 0.587785 -0.000000
v -0.951057 0.309017 0.000000
v -1.000000 -0.000000 -0.000000
v -0.951057 -0.309017 -0.000000
v -0.809017 -0.587785 -0.000000
v -0.587785 -0.809017 0.000000
v -0.309017 -0.951057 0.000000
v -0.285495 0.951057 -0.118256
v -0.543043 0.809017 -0.224936
v -0.747434 0.587785 -0.309597
v -0.878662 0.309017 -0.363954
v -0.923880 -0.000000 -0.382684
v -0.878662 -0.309017 -0.363954
v -0.747434 -0.587785 -0.309597
v -0.543043 -0.809017 -0.224936
v -0.285495 -0.951057 -0.118256
v -0.218508 0.951057 -0.218508
v -0.415627 0.809017 -0.415627
v -0.572061 0.587785 -0.572061
v -0.672498 0.309017 -0.672499
v -0.707107 -0.000000 -0.707107
v -0.672498 -0.309017 -0.672499
v -0.572061 -0.587785 -0.572061
v -0.415627 -0.809017 -0.415627
v -0.218508 -0.951057 -0.218508
v -0.118256 0.951057 -0.285494
v -0.224935 0.809017 -0.543043
v -0.309597 0.587785 -0.747434
v -0.363953 0.309017 -0.878662
v -0.382683 -0.000000 -0.923880
v -0.363953 -0.309017 -0.878662
v -0.309597 -0.587785 -0.747434
v -0.224935 -0.809017 -0.543043
v -0.118256 -0.951057 -0.285494
v 0.000000 0.809017 -0.587785
v 0.000001 -0.587785 -0.809017
vt 0.750000 0.200000
vt 0.750000 0.300000
vt 0.687500 0.300000
vt 0.687500 0.200000
vt 0.750000 0.500000
vt 0.750000 0.600000
vt 0.687500 0.600000
vt 0.687500 0.500000
vt 0.750000 0.800000
vt 0.750000 0.900000
vt 0.687500 0.900000
vt 0.687500 0.800000
vt 0.750000 0.100000
vt 0.687500 0.100000
vt 0.750000 0.400000
vt 0.687500 0.400000
vt 0.750000 0.700000
vt 0.687500 0.700000
vt 0.718750 0.000000
vt 0.718750 1.000000
vt 0.625000 0.600000
vt 0.625000 0.500000
vt 0.625000 0.900000
vt 0.625000 0.800000
vt 0.625000 0.200000
vt 0.625000 0.100000
vt 0.625000 0.400000
vt 0.625000 0.700000
vt 0.656250 0.000000
vt 0.625000 0.300000
vt 0.656250 1.000000
vt 0.593750 1.000000
vt 0.562500 0.900000
vt 0.562500 0.300000
vt 0.562500 0.200000
vt 0.562500 0.600000
vt 0.562500 0.500000
vt 0.562500 0.800000
vt 0.562500 0.100000
vt 0.562500 0.400000
vt 0.562500 0.700000
vt 0.593750 0.000000
vt 0.500000 0.400000
vt 0.500000 0.300000
vt 0.500000 0.700000
vt 0.500000 0.600000
vt 0.531250 1.000000
vt 0.500000 0.900000
vt 0.500000 0.200000
vt 0.500000 0.500000
vt 0.500000 0.800000
vt 0.500000 0.100000
vt 0.531250 0.000000
vt 0.437500 0.800000
vt 0.437500 0.700000
vt 0.468750 0.000000
vt 0.437500 0.100000
vt 0.437500 0.400000
vt 0.437500 0.300000
vt 0.437500 0.600000
vt 0.468750 1.000000
vt 0.437500 0.900000
vt 0.437500 0.200000
vt 0.437500 0.500000
vt 0.375000 0.500000
vt 0.375000 0.400000
vt 0.375000 0.800000
vt 0.375000 0.700000
vt 0.406250 0.000000
vt 0.375000 0.100000
vt 0.375000 0.300000
vt 0.375000 0.600000
vt 0.406250 1.000000
vt 0.375000 0.900000
vt 0.375000 0.200000
vt 0.312500 0.900000
vt 0.312500 0.800000
vt 0.312500 0.200000
vt 0.312500 0.100000
vt 0.312500 0.500000
vt 0.312500 0.400000
vt 0.312500 0.700000
vt 0.343750 0.000000
vt 0.312500 0.300000
vt 0.312500 0.600000
vt 0.343750 1.000000
vt 0.250000 0.300000
vt 0.250000 0.200000
vt 0.250000 0.600000
vt 0.250000 0.500000
vt 0.250000 0.900000
vt 0.250000 0.800000
vt 0.250000 0.100000
vt 0.250000 0.400000
vt 0.250000 0.700000
vt 0.281250 0.000000
vt 0.281250 1.000000
vt 0.187500 0.700000
vt 0.187500 0.600000
vt 0.218750 1.000000
vt 0.187500 0.900000
vt 0.187500 0.300000
vt 0.187500 0.200000
vt 0.187500 0.500000
vt 0.187500 0.800000
vt 0.187500 0.100000
vt 0.187500 0.400000
vt 0.218750 0.000000
vt 0.125000 0.400000
vt 0.125000 0.300000
vt 0.125000 0.700000
vt 0.125000 0.600000
vt 0.156250 1.000000
vt 0.125000 0.900000
vt 0.125000 0.200000
vt 0.125000 0.500000
vt 0.125000 0.800000
vt 0.125000 0.100000
vt 0.156250 0.000000
vt 0.062500 0.800000
vt 0.062500 0.700000
vt 0.093750 0.000000
vt 0.062500 0.100000
vt 0.062500 0.400000
vt 0.062500 0.300000
vt 0.062500 0.600000
vt 0.093750 1.000000
vt 0.062500 0.900000
vt 0.062500 0.200000
vt 0.062500 0.500000
vt 0.000000 0.200000
vt 0.000000 0.100000
vt 0.000000 0.500000
vt 0.000000 0.400000
vt 0.000000 0.800000
vt 0.000000 0.700000
vt 0.031250 0.000000
vt 0.000000 0.300000
vt 0.000000 0.600000
vt 0.031250 1.000000
vt 0.000000 0.900000
vt 1.000000 0.500000
vt 1.000000 0.600000
vt 0.937500 0.600000
vt 0.937500 0.500000
vt 1.000000 0.800000
vt 1.000000 0.900000
vt 0.937500 0.900000
vt 0.937500 0.800000
vt 1.000000 0.100000
vt 1.000000 0.200000
vt 0.937500 0.200000
vt 0.937500 0.100000
vt 1.000000 0.400000
vt 0.937500 0.400000
vt 1.000000 0.700000
vt 0.937500 0.700000
vt 0.968750 0.000000
vt 1.000000 0.300000
vt 0.937500 0.300000
vt 0.968750 1.000000
vt 0.906250 1.000000
vt 0.875000 0.900000
vt 0.875000 0.300000
vt 0.875000 0.200000
vt 0.875000 0.600000
vt 0.875000 0.500000
vt 0.875000 0.800000
vt 0.875000 0.100000
vt 0.875000 0.400000
vt 0.875000 0.700000
vt 0.906250 0.000000
vt 0.812500 0.700000
vt 0.812500 0.600000
vt 0.843750 1.000000
vt 0.812500 0.900000
vt 0.812500 0.300000
vt 0.812500 0.200000
vt 0.812500 0.500000
vt 0.812500 0.800000
vt 0.812500 0.100000
vt 0.812500 0.400000
vt 0.843750 0.000000
vt 0.781250 0.000000
vt 0.781250 1.000000
vn 0.1393 -0.7002 -0.7002
vn 0.1928 0.1535 -0.9692
vn 0.0899 0.8874 -0.4522
vn 0.0899 -0.8874 -0.4522
vn 0.1928 -0.1535 -0.9692
vn 0.1393 0.7002 -0.7002
vn 0.0311 -0.9872 -0.1564
vn 0.1745 -0.4470 -0.8773
vn 0.1745 0.4470 -0.8773
vn 0.0311 0.9872 -0.1564
vn 0.5490 0.1535 -0.8216
vn 0.2561 0.8874 -0.3833
vn 0.2561 -0.8874 -0.3833
vn 0.5490 -0.1535 -0.8216
vn 0.3966 0.7002 -0.5936
vn 0.0886 -0.9872 -0.1326
vn 0.4970 -0.4470 -0.7438
vn 0.4970 0.4470 -0.7438
vn 0.0886 0.9872 -0.1326
vn 0.3966 -0.7002 -0.5936
vn 0.1326 0.9872 -0.0886
vn 0.5936 -0.7002 -0.3966
vn 0.8216 0.1535 -0.5490
vn 0.3833 0.8874 -0.2561
vn 0.3833 -0.8874 -0.2561
vn 0.8216 -0.1535 -0.5490
vn 0.5936 0.7002 -0.3966
vn 0.1326 -0.9872 -0.0886
vn 0.7438 -0.4470 -0.4970
vn 0.7438 0.4470 -0.4970
vn 0.8773 -0.4470 -0.1745
vn 0.8773 0.4470 -0.1745
vn 0.1564 0.9872 -0.0311
vn 0.7002 -0.7002 -0.1393
vn 0.9692 0.1535 -0.1928
vn 0.4522 0.8874 -0.0899
vn 0.4522 -0.8874 -0.0899
vn 0.9692 -0.1535 -0.1928
vn 0.7002 0.7002 -0.1393
vn 0.1564 -0.9872 -0.0311
vn 0.7002 0.7002 0.1393
vn 0.1564 -0.9872 0.0311
vn 0.8773 -0.4470 0.1745
vn 0.8773 0.4470 0.1745
vn 0.1564 0.9872 0.0311
vn 0.7002 -0.7002 0.1393
vn 0.9692 0.1535 0.1928
vn 0.4522 0.8874 0.0899
vn 0.4522 -0.8874 0.0899
vn 0.9692 -0.1535 0.1928
vn 0.8216 -0.1535 0.5490
vn 0.5936 0.7002 0.3966
vn 0.1326 -0.9872 0.0886
vn 0.7438 -0.4470 0.4970
vn 0.7438 0.4470 0.4970
vn 0.1326 0.9872 0.0886
vn 0.5936 -0.7002 0.3966
vn 0.8216 0.1535 0.5490
vn 0.3833 0.8874 0.2561
vn 0.3833 -0.8874 0.2561
vn 0.2561 0.8874 0.3833
vn 0.2561 -0.8874 0.3833
vn 0.5490 -0.1535 0.8216
vn 0.3966 0.7002 0.5936
vn 0.0886 -0.9872 0.1326
vn 0.4970 -0.4470 0.7438
vn 0.4970 0.4470 0.7438
vn 0.0886 0.9872 0.1326
vn 0.3966 -0.7002 0.5936
vn 0.5490 0.1535 0.8216
vn 0.1393 -0.7002 0.7002
vn 0.1928 0.1535 0.9692
vn 0.0899 0.8874 0.4522
vn 0.0899 -0.8874 0.4522
vn 0.1928 -0.1535 0.9692
vn 0.1393 0.7002 0.7002
vn 0.0311 -0.9872 0.1564
vn 0.1745 -0.4470 0.8773
vn 0.1745 0.4470 0.8773
vn 0.0311 0.9872 0.1564
vn -0.1745 0.4470 0.8773
vn -0.0311 0.9872 0.1564
vn -0.1393 -0.7002 0.7002
vn -0.1928 0.1535 0.9692
vn -0.0899 0.8874 0.4522
vn -0.0899 -0.8874 0.4522
vn -0.1928 -0.1535 0.9692
vn -0.1393 0.7002 0.7002
vn -0.0311 -0.9872 0.1564
vn -0.1745 -0.4470 0.8773
vn -0.4970 -0.4470 0.7438
vn -0.4970 0.4470 0.7438
vn -0.0886 0.9872 0.1326
vn -0.3966 -0.7002 0.5936
vn -0.5490 0.1535 0.8216
vn -0.2561 0.8874 0.3833
vn -0.2561 -0.8874 0.3833
vn -0.5490 -0.1535 0.8216
vn -0.3966 0.7002 0.5936
vn -0.0886 -0.9872 0.1326
vn -0.5936 0.7002 0.3966
vn -0.1326 -0.9872 0.0886
vn -0.7438 -0.4470 0.4970
vn -0.7438 0.4470 0.4970
vn -0.1326 0.9872 0.0886
vn -0.5936 -0.7002 0.3966
vn -0.8216 0.1535 0.5490
vn -0.3833 0.8874 0.2561
vn -0.3833 -0.8874 0.2561
vn -0.8216 -0.1535 0.5490
vn -0.4522 -0.8874 0.0899
vn -0.9692 -0.1535 0.1928
vn -0.7002 0.7002 0.1393
vn -0.1564 -0.9872 0.0311
vn -0.8773 -0.4470 0.1745
vn -0.8773 0.4470 0.1745
vn -0.1564 0.9872 0.0311
vn -0.7002 -0.7002 0.1393
vn -0.9692 0.1535 0.1928
vn -0.4522 0.8874 0.0899
vn -0.9692 0.1535 -0.1928
vn -0.4522 0.8874 -0.0899
vn -0.4522 -0.8874 -0.0899
vn -0.9692 -0.1535 -0.1928
vn -0.7002 0.7002 -0.1393
vn -0.1564 -0.9872 -0.0311
vn -0.8773 -0.4470 -0.1745
vn -0.8773 0.4470 -0.1745
vn -0.1564 0.9872 -0.0311
vn -0.7002 -0.7002 -0.1393
vn -0.1326 0.9872 -0.0886
vn -0.5936 -0.7002 -0.3966
vn -0.8216 0.1535 -0.5490
vn -0.3833 0.8874 -0.2561
vn -0.3833 -0.8874 -0.2561
vn -0.8216 -0.1535 -0.5490
vn -0.5936 0.7002 -0.3966
vn -0.1326 -0.9872 -0.0886
vn -0.7438 -0.4470 -0.4970
vn -0.7438 0.4470 -0.4970
vn -0.4970 0.4470 -0.7438
vn -0.0886 0.9872 -0.1326
vn -0.3966 -0.7002 -0.5936
vn -0.5490 0.1535 -0.8216
vn -0.2561 0.8874 -0.3833
vn -0.2561 -0.8874 -0.3833
vn -0.5490 -0.1535 -0.8216
vn -0.3966 0.7002 -0.5936
vn -0.0886 -0.9872 -0.1326
vn -0.4970 -0.4470 -0.7438
vn -0.0311 -0.9872 -0.1564
vn -0.1745 -0.4470 -0.8773
vn -0.1745 0.4470 -0.8773
vn -0.0311 0.9872 -0.1564
vn -0.1393 -0.7002 -0.7002
vn -0.1928 0.1535 -0.9692
vn -0.0899 0.8874 -0.4522
vn -0.0899 -0.8874 -0.4522
vn -0.1928 -0.1535 -0.9692
vn -0.1393 0.7002 -0.7002
usemtl None
s off
f 6/1/1 146/2/1 15/3/1 16/4/1
f 4/5/2 3/6/2 12/7/2 13/8/2
f 145/9/3 1/10/3 9/11/3 10/12/3
f 7/13/4 6/1/4 16/4/4 17/14/4
f 5/15/5 4/5/5 13/8/5 14/16/5
f 2/17/6 145/9/6 10/12/6 11/18/6
f 8/19/7 7/13/7 17/14/7
f 146/2/8 5/15/8 14/16/8 15/3/8
f 3/6/9 2/17/9 11/18/9 12/7/9
f 1/10/10 99/20/10 9/11/10
f 13/8/11 12/7/11 21/21/11 22/22/11
f 10/12/12 9/11/12 18/23/12 19/24/12
f 17/14/13 16/4/13 25/25/13 26/26/13
f 14/16/14 13/8/14 22/22/14 23/27/14
f 11/18/15 10/12/15 19/24/15 20/28/15
f 8/29/16 17/14/16 26/26/16
f 15/3/17 14/16/17 23/27/17 24/30/17
f 12/7/18 11/18/18 20/28/18 21/21/18
f 9/11/19 99/31/19 18/23/19
f 16/4/20 15/3/20 24/30/20 25/25/20
f 18/23/21 99/32/21 27/33/21
f 25/25/22 24/30/22 33/34/22 34/35/22
f 22/22/23 21/21/23 30/36/23 31/37/23
f 19/24/24 18/23/24 27/33/24 28/38/24
f 26/26/25 25/25/25 34/35/25 35/39/25
f 23/27/26 22/22/26 31/37/26 32/40/26
f 20/28/27 19/24/27 28/38/27 29/41/27
f 8/42/28 26/26/28 35/39/28
f 24/30/29 23/27/29 32/40/29 33/34/29
f 21/21/30 20/28/30 29/41/30 30/36/30
f 33/34/31 32/40/31 41/43/31 42/44/31
f 30/36/32 29/41/32 38/45/32 39/46/32
f 27/33/33 99/47/33 36/48/33
f 34/35/34 33/34/34 42/44/34 43/49/34
f 31/37/35 30/36/35 39/46/35 40/50/35
f 28/38/36 27/33/36 36/48/36 37/51/36
f 35/39/37 34/35/37 43/49/37 44/52/37
f 32/40/38 31/37/38 40/50/38 41/43/38
f 29/41/39 28/38/39 37/51/39 38/45/39
f 8/53/40 35/39/40 44/52/40
f 38/45/41 37/51/41 46/54/41 47/55/41
f 8/56/42 44/52/42 53/57/42
f 42/44/43 41/43/43 50/58/43 51/59/43
f 39/46/44 38/45/44 47/55/44 48/60/44
f 36/48/45 99/61/45 45/62/45
f 43/49/46 42/44/46 51/59/46 52/63/46
f 40/50/47 39/46/47 48/60/47 49/64/47
f 37/51/48 36/48/48 45/62/48 46/54/48
f 44/52/49 43/49/49 52/63/49 53/57/49
f 41/43/50 40/50/50 49/64/50 50/58/50
f 50/58/51 49/64/51 58/65/51 59/66/51
f 47/55/52 46/54/52 55/67/52 56/68/52
f 8/69/53 53/57/53 62/70/53
f 51/59/54 50/58/54 59/66/54 60/71/54
f 48/60/55 47/55/55 56/68/55 57/72/55
f 45/62/56 99/73/56 54/74/56
f 52/63/57 51/59/57 60/71/57 61/75/57
f 49/64/58 48/60/58 57/72/58 58/65/58
f 46/54/59 45/62/59 54/74/59 55/67/59
f 53/57/60 52/63/60 61/75/60 62/70/60
f 55/67/61 54/74/61 63/76/61 64/77/61
f 62/70/62 61/75/62 70/78/62 71/79/62
f 59/66/63 58/65/63 67/80/63 68/81/63
f 56/68/64 55/67/64 64/77/64 65/82/64
f 8/83/65 62/70/65 71/79/65
f 60/71/66 59/66/66 68/81/66 69/84/66
f 57/72/67 56/68/67 65/82/67 66/85/67
f 54/74/68 99/86/68 63/76/68
f 61/75/69 60/71/69 69/84/69 70/78/69
f 58/65/70 57/72/70 66/85/70 67/80/70
f 70/78/71 69/84/71 78/87/71 79/88/71
f 67/80/72 66/85/72 75/89/72 76/90/72
f 64/77/73 63/76/73 72/91/73 73/92/73
f 71/79/74 70/78/74 79/88/74 80/93/74
f 68/81/75 67/80/75 76/90/75 77/94/75
f 65/82/76 64/77/76 73/92/76 74/95/76
f 8/96/77 71/79/77 80/93/77
f 69/84/78 68/81/78 77/94/78 78/87/78
f 66/85/79 65/82/79 74/95/79 75/89/79
f 63/76/80 99/97/80 72/91/80
f 75/89/81 74/95/81 83/98/81 84/99/81
f 72/91/82 99/100/82 81/101/82
f 79/88/83 78/87/83 87/102/83 88/103/83
f 76/90/84 75/89/84 84/99/84 85/104/84
f 73/92/85 72/91/85 81/101/85 82/105/85
f 80/93/86 79/88/86 88/103/86 89/106/86
f 77/94/87 76/90/87 85/104/87 86/107/87
f 74/95/88 73/92/88 82/105/88 83/98/88
f 8/108/89 80/93/89 89/106/89
f 78/87/90 77/94/90 86/107/90 87/102/90
f 87/102/91 86/107/91 95/109/91 96/110/91
f 84/99/92 83/98/92 92/111/92 93/112/92
f 81/101/93 99/113/93 90/114/93
f 88/103/94 87/102/94 96/110/94 97/115/94
f 85/104/95 84/99/95 93/112/95 94/116/95
f 82/105/96 81/101/96 90/114/96 91/117/96
f 89/106/97 88/103/97 97/115/97 98/118/97
f 86/107/98 85/104/98 94/116/98 95/109/98
f 83/98/99 82/105/99 91/117/99 92/111/99
f 8/119/100 89/106/100 98/118/100
f 92/111/101 91/117/101 101/120/101 102/121/101
f 8/122/102 98/118/102 108/123/102
f 96/110/103 95/109/103 105/124/103 106/125/103
f 93/112/104 92/111/104 102/121/104 103/126/104
f 90/114/105 99/127/105 100/128/105
f 97/115/106 96/110/106 106/125/106 107/129/106
f 94/116/107 93/112/107 103/126/107 104/130/107
f 91/117/108 90/114/108 100/128/108 101/120/108
f 98/118/109 97/115/109 107/129/109 108/123/109
f 95/109/110 94/116/110 104/130/110 105/124/110
f 108/123/111 107/129/111 116/131/111 117/132/111
f 105/124/112 104/130/112 113/133/112 114/134/112
f 102/121/113 101/120/113 110/135/113 111/136/113
f 8/137/114 108/123/114 117/132/114
f 106/125/115 105/124/115 114/134/115 115/138/115
f 103/126/116 102/121/116 111/136/116 112/139/116
f 100/128/117 99/140/117 109/141/117
f 107/129/118 106/125/118 115/138/118 116/131/118
f 104/130/119 103/126/119 112/139/119 113/133/119
f 101/120/120 100/128/120 109/141/120 110/135/120
f 113/142/121 112/143/121 121/144/121 122/145/121
f 110/146/122 109/147/122 118/148/122 119/149/122
f 117/150/123 116/151/123 125/152/123 126/153/123
f 114/154/124 113/142/124 122/145/124 123/155/124
f 111/156/125 110/146/125 119/149/125 120/157/125
f 8/158/126 117/150/126 126/153/126
f 115/159/127 114/154/127 123/155/127 124/160/127
f 112/143/128 111/156/128 120/157/128 121/144/128
f 109/147/129 99/161/129 118/148/129
f 116/151/130 115/159/130 124/160/130 125/152/130
f 118/148/131 99/162/131 127/163/131
f 125/152/132 124/160/132 133/164/132 134/165/132
f 122/145/133 121/144/133 130/166/133 131/167/133
f 119/149/134 118/148/134 127/163/134 128/168/134
f 126/153/135 125/152/135 134/165/135 135/169/135
f 123/155/136 122/145/136 131/167/136 132/170/136
f 120/157/137 119/149/137 128/168/137 129/171/137
f 8/172/138 126/153/138 135/169/138
f 124/160/139 123/155/139 132/170/139 133/164/139
f 121/144/140 120/157/140 129/171/140 130/166/140
f 130/166/141 129/171/141 138/173/141 139/174/141
f 127/163/142 99/175/142 136/176/142
f 134/165/143 133/164/143 142/177/143 143/178/143
f 131/167/144 130/166/144 139/174/144 140/179/144
f 128/168/145 127/163/145 136/176/145 137/180/145
f 135/169/146 134/165/146 143/178/146 144/181/146
f 132/170/147 131/167/147 140/179/147 141/182/147
f 129/171/148 128/168/148 137/180/148 138/173/148
f 8/183/149 135/169/149 144/181/149
f 133/164/150 132/170/150 141/182/150 142/177/150
f 8/184/151 144/181/151 7/13/151
f 142/177/152 141/182/152 5/15/152 146/2/152
f 139/174/153 138/173/153 2/17/153 3/6/153
f 136/176/154 99/185/154 1/10/154
f 143/178/155 142/177/155 146/2/155 6/1/155
f 140/179/156 139/174/156 3/6/156 4/5/156
f 137/180/157 136/176/157 1/10/157 145/9/157
f 144/181/158 143/178/158 6/1/158 7/13/158
f 141/182/159 140/179/159 4/5/159 5/15/159
f 138/173/160 137/180/160 145/9/160 2/17/160
